# AST/ASF file generated using VICON BodyLanguage
# -----------------------------------------------
:version 1.10
:name VICON
:units
  mass 1.0
  length 0.45
  angle deg
:documentation
   .ast/.asf automatically generated from VICON data using
   VICON BodyBuilder and BodyLanguage model FoxedUp or BRILLIANT.MOD
:root
   order TX TY TZ RX RY RZ
   axis XYZ
   position 0 0 0  
   orientation 0 0 0 
:bonedata
  begin
     id 1 
     name lhipjoint
     direction 0.61886 -0.69539 0.365302 
     length 2.20474 
     axis 0 0 0  XYZ
  end
  begin
     id 2 
     name lfemur
     direction 0.34202 -0.939693 0  
     length 6.65149  
     axis 0 0 20  XYZ
    dof rx ry rz
    limits (-160.0 20.0)
           (-70.0 70.0)
           (-60.0 70.0)
  end
  begin
     id 3 
     name ltibia
     direction 0.34202 -0.939693 0   
     length 6.35814   
     axis 0 0 20   XYZ
    dof rx
    limits (-10.0 170.0)
  end
  begin
     id 4 
     name lfoot
     direction 0.101224 -0.278109 0.955201   
     length 2.18766   
     axis -90 7.62852e-016 20   XYZ
    dof rx rz
    limits (-45.0 90.0)
           (-70.0 20.0)
  end
  begin
     id 5 
     name ltoes
     direction 1.53524e-011 -4.21877e-011 1   
     length 1.09206   
     axis -90 7.62852e-016 20   XYZ
    dof rx
    limits (-90.0 20.0)
  end
  begin
     id 6 
     name rhipjoint
     direction -0.600207 -0.708087 0.371972   
     length 2.1652  
     axis 0 0 0  XYZ 
  end
  begin
     id 7 
     name rfemur
     direction -0.34202 -0.939693 0   
     length 6.54691   
     axis 0 0 -20   XYZ
    dof rx ry rz
    limits (-160.0 20.0)
           (-70.0 70.0)
           (-70.0 60.0)
  end
  begin
     id 8 
     name rtibia
     direction -0.34202 -0.939693 0   
     length 6.37474   
     axis 0 0 -20   XYZ
    dof rx
    limits (-10.0 170.0)
 end
 begin
     id 9 
     name rfoot
     direction -0.111266 -0.3057 0.945604   
     length 2.00903  
     axis -90 -7.62852e-016 -20   XYZ
    dof rx rz
    limits (-45.0 90.0)
           (-20.0 70.0)
  end
  begin
     id 10 
     name rtoes
     direction -1.5362e-011 -4.21913e-011 1   
     length 1.00221   
     axis -90 -7.62852e-016 -20   XYZ
    dof rx
    limits (-90.0 20.0)
  end
  begin
     id 11 
     name lowerback
     direction -0.0224561 0.999731 -0.00577314   
     length 2.10409   
     axis 0 0 0   XYZ
    dof rx ry rz
    limits (-20.0 45.0)
           (-30.0 30.0)
           (-30.0 30.0)
  end
  begin
     id 12 
     name upperback
     direction 0.0213126 0.999185 -0.0342817   
     length 2.09783   
     axis 0 0 0   XYZ
    dof rx ry rz
    limits (-20.0 45.0)
           (-30.0 30.0)
           (-30.0 30.0)
  end
  begin
     id 13 
     name thorax
     direction 0.0312356 0.999036 -0.0308451   
     length 2.09788   
     axis 0 0 0   XYZ
    dof rx ry rz
    limits (-20.0 45.0)
           (-30.0 30.0)
           (-30.0 30.0)
  end
  begin
     id 14 
     name lowerneck
     direction -0.0114419 0.996481 0.0830329   
     length 1.38575   
     axis 0 0 0   XYZ
    dof rx ry rz
    limits (-20.0 45.0)
           (-30.0 30.0)
           (-30.0 30.0)
  end
  begin
     id 15 
     name upperneck
     direction -0.0075675 0.996187 -0.0869092   
     length 1.39401   
     axis 0 0 0   XYZ
    dof rx ry rz
    limits (-20.0 45.0)
           (-30.0 30.0)
           (-30.0 30.0)
  end
  begin
     id 16
     name head
     direction -0.00222073 0.999264 -0.0382974  
     length 1.3964  
     axis 0 0 0   XYZ
    dof rx ry rz
    limits (-20.0 45.0)
           (-30.0 30.0)
           (-30.0 30.0)
  end
  begin
     id 17 
     name lclavicle
     direction 0.965962 0.222138 0.132556  
     length 2.81514  
     axis 0 0 0   XYZ
    dof ry rz
    limits (-20.0 10.0)
           (0.0 20.0)
  end
  begin
     id 18 
     name lhumerus
     direction 1 -4.48972e-011 7.03471e-018   
     length 4.47366   
     axis 180 -30 -90   XYZ
    dof rx ry rz
    limits (-60.0 90.0)
           (-90.0 90.0)
           (-90.0 90.0)
  end
  begin
     id 19
     name lradius
     direction 1 -4.48951e-011 -6.22192e-028   
     length 3.19948   
     axis 180 -30 -90   XYZ
    dof rx
    limits (-10.0 170.0)
  end
  begin
     id 20
     name lwrist
     direction 1 -4.48967e-011 -1.24264e-027   
     length 1.59974   
     axis 1.40095e-015 90 90   XYZ
    dof ry
    limits (-180.0 0.0)
 end
  begin
     id 21 
     name lhand
     direction 1 -4.4897e-011 -2.48528e-027   
     length 0.492667   
     axis 1.58582e-015 90 90   XYZ
    dof rx rz
    limits (-90.0 90.0)
           (-45.0 45.0)
  end
  begin
     id 22 
     name lfingers
     direction 1 -4.48996e-011 -4.97056e-027   
     length 0.397201   
     axis 3.17164e-015 90 90   XYZ
    dof rx
    limits (0.0 90.0)
  end
  begin
     id 23
     name lthumb
     direction 0.707107 -6.34981e-011 0.707107   
     length 0.570303   
     axis -90 45 2.85299e-015   XYZ
    dof rx rz
    limits (-45.0 45.0)
           (-45.0 45.0)
  end
  begin
     id 24 
     name rclavicle
     direction -0.961164 0.229034 0.153972   
     length 3.09348  
     axis 0 0 0   XYZ 
    dof ry rz
    limits (-10.0 20.0)
           (-20.0 0.0)
  end
  begin
     id 25 
     name rhumerus
     direction -1 -4.48971e-011 -9.06263e-028  
     length 4.3269   
     axis 180 30 90   XYZ
    dof rx ry rz
    limits (-90.0 60.0)
           (-90.0 90.0)
           (-90.0 90.0)
  end
  begin
     id 26 
     name rradius
     direction -1 -4.48953e-011 1.44659e-027   
     length 3.1896   
     axis 180 30 90   XYZ
    dof rx
    limits (-10.0 170.0)
  end
  begin
     id 27 
     name rwrist
     direction -1 -4.48988e-011 -1.24264e-027   
     length 1.5948   
     axis 1.40095e-015 -90 -90   XYZ
    dof ry
    limits (-180.0 0.0)
  end
  begin
     id 28
     name rhand
     direction -1 -4.49033e-011 -2.48528e-027   
     length 0.464496   
     axis 1.58582e-015 -90 -90   XYZ
    dof rx rz
    limits (-90.0 90.0)
           (-45.0 45.0)
  end
  begin
     id 29
     name rfingers
     direction -1 -4.48905e-011 -4.97056e-027   
     length 0.374489   
     axis 3.17164e-015 -90 -90   XYZ
    dof rx
    limits (0.0 90.0)
  end
  begin
     id 30
     name rthumb
     direction -0.707107 -6.34909e-011 0.707107   
     length 0.537693   
     axis -90 -45 -2.85299e-015   XYZ
    dof rx rz
    limits (-45.0 45.0)
           (-45.0 45.0)
  end
:hierarchy
  begin
    root lhipjoint rhipjoint lowerback
    lhipjoint lfemur
    lfemur ltibia
    ltibia lfoot
    lfoot ltoes
    rhipjoint rfemur
    rfemur rtibia
    rtibia rfoot
    rfoot rtoes
    lowerback upperback
    upperback thorax
    thorax lowerneck lclavicle rclavicle
    lowerneck upperneck
    upperneck head
    lclavicle lhumerus
    lhumerus lradius
    lradius lwrist
    lwrist lhand lthumb
    lhand lfingers
    rclavicle rhumerus
    rhumerus rradius
    rradius rwrist
    rwrist rhand rthumb
    rhand rfingers
  end

#!OML:ASF G:\acrobat\cartwheel_test 2\Patient 1\Session 2\acrobat4.ASF
:FULLY-SPECIFIED
:DEGREES
3754
root 8.13109 29.7987 18.0538 -5.9827 183.795 1263.8
lowerback 3.36148 -0.458697 -4.42045
upperback -10.6348 -0.894258 1.73354
thorax -13.394 0.150821 4.51755
lowerneck -20.0007 -3.0358 -6.30415
upperneck -0.407893 -2.9393 4.94078
head 3.16141 -1.26352 2.29422
rclavicle 3.18055e-015 7.95139e-015
rhumerus 64.5504 -34.7676 -45.381
rradius 51.2064
rwrist 365.509
rhand -36.3386 -776.432
rfingers 7.12502
rthumb -9.43654 -86.2009
lclavicle 3.18055e-015 7.95139e-015
lhumerus 57.1321 31.8889 35.5698
lradius 58.6198
lwrist 19.4776
lhand -57.0013 -350.841
lfingers 7.12502
lthumb -29.2928 -1403.13
rfemur -9.17554 3.29693 25.3196
rtibia 56.2722
rfoot 39.8081 -11.0126
rtoes -0.52938
lfemur -732.337 4.8281 -742.802
ltibia 60.4378
lfoot 211.121 -182.155
ltoes -17.2335
3755
root 8.11951 29.6278 18.0782 -5.44152 184.373 1263.96
lowerback 3.20523 -0.606115 -4.33244
upperback -10.8248 -1.0978 1.7286
thorax -13.4993 0.0437271 4.49409
lowerneck -19.8977 -3.10254 -6.47337
upperneck -0.755148 -2.99521 5.0331
head 3.04638 -1.289 2.34741
rclavicle -2.18663e-015 -4.77083e-015
rhumerus 66.1733 -33.6072 -45.1691
rradius 47.1205
rwrist 363.473
rhand -34.7775 -770.352
rfingers 7.12502
rthumb -7.93001 -80.1834
lclavicle -2.18663e-015 -4.77083e-015
lhumerus 59.1803 31.3408 36.8336
lradius 56.7652
lwrist 20.8667
lhand -54.8993 -351.055
lfingers 7.12502
lthumb -27.2839 -1403.01
rfemur -9.76142 2.32544 25.3968
rtibia 57.3775
rfoot 40.0904 -9.01058
rtoes -2.82577
lfemur -731.743 5.26044 -742.452
ltibia 60.7524
lfoot 210.958 -183.338
ltoes -17.9935
3756
root 8.10162 29.4572 18.13 -5.12969 185.017 1264.1
lowerback 3.44208 -0.823059 -4.48264
upperback -10.7675 -1.42833 1.86957
thorax -13.5395 -0.0991826 4.79115
lowerneck -20.7392 -3.00716 -6.3023
upperneck -0.846066 -2.83824 4.82654
head 3.1235 -1.20881 2.26473
rclavicle 2.68359e-015 -9.93923e-016
rhumerus 69.3324 -32.842 -46.2708
rradius 43.0499
rwrist 365.138
rhand -35.9875 -777.45
rfingers 7.12502
rthumb -9.09778 -87.2338
lclavicle 2.68359e-015 -9.93923e-016
lhumerus 60.8112 31.0287 37.3702
lradius 54.7275
lwrist 22.4668
lhand -54.0843 -352.428
lfingers 7.12502
lthumb -26.504 -1404.26
rfemur -9.78599 1.446 25.4345
rtibia 58.4205
rfoot 37.9593 -7.56941
rtoes -2.48291
lfemur -731.394 5.58933 -742.078
ltibia 61.999
lfoot 210.436 -183.351
ltoes -15.9551
3757
root 8.07936 29.2585 18.2005 -4.95347 185.57 1264.11
lowerback 3.94848 -0.97595 -4.58214
upperback -10.7074 -1.6833 1.92676
thorax -13.7555 -0.207129 4.96741
lowerneck -21.3187 -2.91927 -6.26842
upperneck -1.1555 -2.67079 4.63514
head 3.09623 -1.12538 2.21257
rclavicle 4.96962e-015 -1.39149e-015
rhumerus 72.6877 -32.708 -47.1555
rradius 38.9349
rwrist 365.931
rhand -36.7069 -782.448
rfingers 7.12502
rthumb -9.79188 92.2006
lclavicle 4.96962e-015 -1.39149e-015
lhumerus 61.9771 30.2893 36.7915
lradius 52.2946
lwrist 22.435
lhand -56.4674 -349.489
lfingers 7.12502
lthumb -28.7828 -1401.69
rfemur -9.69274 0.8961 25.3369
rtibia 60.0276
rfoot 37.2429 -6.50521
rtoes -4.03071
lfemur -731.057 5.97362 -741.804
ltibia 63.2978
lfoot 210.037 -183.087
ltoes -13.2775
3758
root 8.05377 29.0247 18.2834 -4.83958 185.933 1264
lowerback 4.55896 -1.05833 -4.67918
upperback -10.6978 -1.84917 1.92284
thorax -14.1113 -0.266187 5.06991
lowerneck -21.4799 -2.80521 -6.27599
upperneck -1.61845 -2.47739 4.38122
head 2.96005 -1.03557 2.15262
rclavicle 1.95803e-014 -6.55989e-015
rhumerus 76.9572 -31.8808 -51.2089
rradius 35.3087
rwrist 368.102
rhand -40.56 -802.413
rfingers 7.12502
rthumb -13.5076 111.955
lclavicle 1.95803e-014 -6.55989e-015
lhumerus 63.4987 29.7367 36.9657
lradius 49.9506
lwrist 22.5752
lhand -59.8665 -346.367
lfingers 7.12502
lthumb -32.0248 -1399.17
rfemur -9.64145 0.734152 25.137
rtibia 61.9457
rfoot 36.0423 -5.8498
rtoes -4.81821
lfemur -730.858 6.66497 -741.608
ltibia 65.1685
lfoot 209.27 -183.057
ltoes -10.889
3759
root 8.02885 28.758 18.372 -4.74186 186.2 1263.79
lowerback 5.10628 -1.15317 -5.0478
upperback -10.6972 -2.04614 2.07794
thorax -14.4279 -0.298674 5.5107
lowerneck -21.6244 -2.61555 -6.21526
upperneck -1.77009 -2.19798 3.99012
head 2.91124 -0.909368 2.04496
rclavicle -9.14409e-015 1.0138e-014
rhumerus 80.597 -31.086 -57.4088
rradius 34.96
rwrist 373.394
rhand -39.6982 -800.137
rfingers 7.12502
rthumb -12.6768 109.732
lclavicle -9.14409e-015 1.0138e-014
lhumerus 65.1421 29.3702 38.4866
lradius 47.9784
lwrist 22.0145
lhand -63.5214 -344.256
lfingers 7.12502
lthumb -35.4973 -1397.82
rfemur -9.76337 0.536705 24.8329
rtibia 64.2982
rfoot 35.0953 -4.88438
rtoes -6.57225
lfemur -730.747 7.54551 -741.448
ltibia 67.497
lfoot 208.177 -183.069
ltoes -8.29756
3760
root 8.01715 28.4577 18.4525 -4.38974 186.403 1263.54
lowerback 5.16906 -1.26206 -5.58689
upperback -10.7731 -2.24065 2.40881
thorax -14.5186 -0.30544 6.2299
lowerneck -21.5982 -2.51897 -6.21256
upperneck -1.59496 -2.05238 3.62212
head 2.94834 -0.855832 1.94121
rclavicle -1.70706e-014 -6.95746e-016
rhumerus 78.6797 -29.807 -60.786
rradius 42.6372
rwrist 374.546
rhand -40.8642 -799.884
rfingers 7.12502
rthumb -13.8007 109.406
lclavicle -1.70706e-014 -6.95746e-016
lhumerus 66.8346 29.019 41.1088
lradius 46.3822
lwrist 20.8233
lhand -68.5335 -508.064
lfingers 7.12502
lthumb -40.2312 -1253.22
rfemur -10.3794 0.0513755 24.3438
rtibia 67.1518
rfoot 34.2875 -3.33941
rtoes -9.44904
lfemur -730.952 8.4328 -741.412
ltibia 70.2217
lfoot 206.759 -182.876
ltoes -5.15878
3761
root 8.02534 28.1491 18.5303 -3.72229 186.515 1263.25
lowerback 4.6238 -1.35759 -5.9054
upperback -10.8739 -2.35889 2.67251
thorax -14.2627 -0.322899 6.70423
lowerneck -21.5722 -2.52938 -5.9948
upperneck -1.27837 -2.11225 3.21665
head 3.03707 -0.913813 1.77292
rclavicle -2.95692e-015 -1.16786e-014
rhumerus 74.4907 -29.9344 -56.1218
rradius 46.4329
rwrist 371.715
rhand -40.4416 -801.69
rfingers 7.12502
rthumb -13.3935 111.239
lclavicle -2.95692e-015 -1.16786e-014
lhumerus 66.9552 29.2258 43.7915
lradius 47.8005
lwrist 18.2696
lhand -66.9814 -529.496
lfingers 7.12502
lthumb -38.7694 -1275.08
rfemur -11.4853 -0.627914 23.5773
rtibia 70.549
rfoot 32.6527 -2.19206
rtoes -11.185
lfemur -731.591 9.22358 -741.638
ltibia 73.3658
lfoot 204.997 -182.36
ltoes -1.47582
3762
root 8.04832 27.8477 18.6088 -2.89439 186.42 1263.07
lowerback 3.6945 -1.60275 -5.98205
upperback -11.0608 -2.62523 3.1153
thorax -13.8381 -0.442309 7.2458
lowerneck -20.6523 -2.20429 -5.69349
upperneck -1.29241 -1.77532 2.74144
head 2.87997 -0.772345 1.61
rclavicle -1.78906e-014 2.92213e-014
rhumerus 70.745 -29.4184 -51.9173
rradius 50.0778
rwrist 368.956
rhand -41.0943 -803.557
rfingers 7.12502
rthumb -14.0225 113.064
lclavicle -1.78906e-014 2.92213e-014
lhumerus 63.5263 29.8879 46.8459
lradius 54.9309
lwrist 15.8392
lhand -67.3485 -545.241
lfingers 7.12502
lthumb -39.1154 -1290.73
rfemur -12.8811 -1.351 22.7796
rtibia 74.4751
rfoot 30.4872 -1.56911
rtoes -11.7779
lfemur -732.622 10.1401 -741.892
ltibia 76.9696
lfoot 202.876 -182.379
ltoes 0.174464
3763
root 8.07423 27.5591 18.6828 -2.08125 185.966 1263.12
lowerback 2.47116 -1.78201 -5.41843
upperback -11.0386 -2.75196 3.20934
thorax -13.0226 -0.614867 6.96843
lowerneck -20.7937 -1.94545 -5.28479
upperneck -0.737489 -1.52244 2.90012
head 3.06212 -0.63584 1.61422
rclavicle 1.09332e-014 -7.95139e-015
rhumerus 68.083 -29.1751 -50.1675
rradius 53.5777
rwrist 367.361
rhand -41.8002 -805.205
rfingers 7.12502
rthumb -14.7026 114.664
lclavicle 1.09332e-014 -7.95139e-015
lhumerus 59.5794 30.4653 43.751
lradius 58.0639
lwrist 17.234
lhand -66.9347 -550.272
lfingers 7.12502
lthumb -38.7253 -1295.87
rfemur -14.3529 -1.73758 22.2565
rtibia 78.8742
rfoot 28.2525 -1.29527
rtoes -12.125
lfemur -733.833 11.3974 -741.894
ltibia 81.0548
lfoot 200.356 -183.026
ltoes -0.435577
3764
root 8.09081 27.3104 18.7743 -1.82382 185.343 1263.34
lowerback 1.92263 -1.66194 -4.39752
upperback -10.8462 -2.50655 2.71493
thorax -12.5231 -0.658725 5.76342
lowerneck -20.6562 -1.86902 -4.52451
upperneck -0.553002 -1.63735 3.25483
head 3.1046 -0.67605 1.59458
rclavicle 2.23136e-014 -1.6201e-014
rhumerus 65.7623 -29.5667 -50.7016
rradius 56.8732
rwrist 367.076
rhand -42.2663 -806.051
rfingers 7.12502
rthumb -15.1517 115.476
lclavicle 2.23136e-014 -1.6201e-014
lhumerus 57.7524 30.1943 41.7561
lradius 60.6866
lwrist 17.7775
lhand -66.6027 -550.332
lfingers 7.12502
lthumb -38.412 -1296.02
rfemur -15.4117 -1.74902 22.0907
rtibia 83.7513
rfoot 25.9612 -1.4718
rtoes -12.2942
lfemur -734.579 12.7524 -741.428
ltibia 85.6098
lfoot 197.494 -183.565
ltoes -0.387033
3765
root 8.09398 27.1078 18.896 -2.36763 184.808 1263.58
lowerback 2.7101 -1.46433 -3.88383
upperback -10.5597 -2.21696 2.5048
thorax -12.7276 -0.570028 5.23106
lowerneck -20.6449 -1.96041 -4.45246
upperneck -0.485696 -1.78667 3.32096
head 3.12985 -0.749323 1.5908
rclavicle -2.26118e-015 1.39149e-015
rhumerus 64.2821 -29.5982 -51.9625
rradius 59.7603
rwrist 367.027
rhand -43.0886 -806.431
rfingers 7.12502
rthumb -15.9437 115.795
lclavicle -2.26118e-015 1.39149e-015
lhumerus 56.3587 29.8349 40.6834
lradius 62.8485
lwrist 18.1054
lhand -66.3819 -550.219
lfingers 7.12502
lthumb -38.2036 -1295.96
rfemur -15.8419 -1.73561 22.0966
rtibia 89.0432
rfoot 23.3688 -1.7886
rtoes -12.2037
lfemur -734.595 14.1319 -740.517
ltibia 90.5498
lfoot 194.404 -184.227
ltoes -0.20797
